<svg width="55" height="55" viewBox="0 0 55 55" fill="none" xmlns="http://www.w3.org/2000/svg">
<g clip-path="url(#clip0_39_191)">
<g clip-path="url(#clip1_39_191)">
<rect width="55" height="55" fill="#1E0E67"/>
<path d="M27.5 0.5C42.4129 0.5 54.5 12.5674 54.5 27.4521C54.4999 42.1041 42.7878 54.0264 28.1973 54.3955L27.5 54.4043H27.499C22.7428 54.411 18.07 53.1577 13.957 50.7734L13.7744 50.668L13.5713 50.7246L0.833984 54.2754L4.5 41.8857L4.57715 41.624L4.41211 41.4326L4.3418 41.3154L4.1084 40.9209C1.81594 36.9615 0.574757 32.4827 0.50293 27.9102L0.5 27.4531V27.4521C0.5 12.5674 12.5871 0.500007 27.5 0.5ZM27.5 4.99023C23.7817 4.98943 20.125 5.90848 16.8555 7.66016L16.2061 8.02246C12.9895 9.885 10.289 12.5124 8.3418 15.666L7.96191 16.3027C6.11611 19.5256 5.10146 23.1519 5.00293 26.8555L4.99512 27.5967C5.02073 31.5566 6.09527 35.4396 8.1084 38.8516L8.12598 38.8809L8.14746 38.9082L9.5498 40.6748L7.70703 46.9023L7.45117 47.7686L8.32129 47.5264L14.4854 45.8066L15.3389 46.3525V46.3535C18.0968 48.1211 21.2063 49.2648 24.4482 49.707L25.0977 49.7861C28.3561 50.1346 31.6489 49.7675 34.7461 48.7148L35.3633 48.4951C38.4336 47.351 41.2137 45.5519 43.5117 43.2266L43.9648 42.7549C46.3464 40.2003 48.0994 37.1269 49.084 33.7783C50.007 30.639 50.2312 27.3385 49.7441 24.1084L49.6367 23.4629C49.0547 20.2434 47.7761 17.1922 45.8926 14.5215L45.5078 13.9922C43.413 11.1984 40.695 8.92968 37.5693 7.36719C34.6391 5.9024 31.4257 5.09589 28.1553 5L27.5 4.99023Z" fill="white" stroke="#1E0E67"/>
<path d="M40.5213 31.5478C40.4168 31.4984 36.4046 29.5273 35.6923 29.2693C35.3951 29.1466 35.0787 29.0769 34.7573 29.0634C34.2183 29.0634 33.7618 29.3324 33.4098 29.8622C33.0083 30.4579 31.7956 31.8717 31.4216 32.2945C31.3721 32.3494 31.3061 32.418 31.2648 32.418C31.2291 32.418 30.6076 32.1627 30.4206 32.0804C26.1196 30.2136 22.8553 25.7307 22.4071 24.973C22.3438 24.8632 22.3411 24.8166 22.3411 24.8166C22.3548 24.7589 22.5006 24.6134 22.5748 24.5393C22.7948 24.3224 23.0313 24.0397 23.2596 23.7624L23.5813 23.3781C23.9141 22.9938 24.0626 22.6918 24.2331 22.3486L24.3238 22.1674C24.4599 21.8926 24.526 21.5885 24.5164 21.2821C24.5069 20.9757 24.4218 20.6764 24.2688 20.4105C24.1753 20.2211 22.4813 16.1417 22.3026 15.7135C21.8681 14.6786 21.2961 14.1981 20.5013 14.1981C20.4271 14.1981 20.5013 14.1981 20.1933 14.2119C19.8166 14.2256 17.7651 14.4974 16.8576 15.0656C15.8951 15.6696 14.2726 17.6022 14.2726 20.9953C14.2726 24.0479 16.2113 26.9304 17.0446 28.0257L17.1573 28.1904C20.3501 32.8435 24.3293 36.2915 28.3608 37.9002C32.2438 39.4485 34.0836 39.6296 35.1286 39.6296C35.5686 39.6296 35.9206 39.594 36.2286 39.5638L36.4266 39.5445C37.7686 39.4265 40.7166 37.9002 41.3876 36.0417C41.9156 34.5757 42.0558 32.9753 41.7038 32.3933C41.4618 31.998 41.0466 31.8003 40.5213 31.5478Z" fill="white"/>
</g>
</g>
<rect x="0.5" y="0.5" width="54" height="54" stroke="#1E0E67"/>
<defs>
<clipPath id="clip0_39_191">
<rect width="55" height="55" fill="white"/>
</clipPath>
<clipPath id="clip1_39_191">
<rect width="55" height="55" fill="white"/>
</clipPath>
</defs>
</svg>
