<svg width="55" height="55" viewBox="0 0 55 55" fill="none" xmlns="http://www.w3.org/2000/svg">
<g clip-path="url(#clip0_39_156)">
<rect width="55" height="55" fill="#1E0E67"/>
<g clip-path="url(#clip1_39_156)">
<rect width="55" height="55" fill="#1E0E67"/>
<path d="M27.5 0.5C42.4121 0.5 54.5 12.5879 54.5 27.5C54.5 42.4121 42.4121 54.5 27.5 54.5C12.5879 54.5 0.5 42.4121 0.5 27.5C0.5 12.5879 12.5879 0.5 27.5 0.5ZM27.5 5C21.7191 5 16.1678 7.22492 11.9902 11.2002L11.5898 11.5898C7.37028 15.8094 5 21.5326 5 27.5C5 33.2809 7.22492 38.8322 11.2002 43.0098L11.5898 43.4102C15.8094 47.6297 21.5326 50 27.5 50C33.4674 50 39.1906 47.6297 43.4102 43.4102C47.6297 39.1906 50 33.4674 50 27.5C50 21.7191 47.7751 16.1678 43.7998 11.9902L43.4102 11.5898C39.1906 7.37028 33.4674 5 27.5 5Z" fill="white" stroke="#1E0E67"/>
<path d="M22.3159 40C22.6631 40 22.9245 39.99 23.1 39.97C23.3034 39.9338 23.4869 39.8396 23.6208 39.7025C23.7944 39.5459 23.8812 39.3175 23.8812 39.0175L23.8697 37.6251C23.8619 36.7368 23.8581 36.0335 23.8581 35.5152L23.3141 35.5977C22.8789 35.6571 22.4381 35.6805 21.9977 35.6677C21.4443 35.6592 20.8928 35.6115 20.3485 35.5252C19.7716 35.43 19.2286 35.2193 18.7629 34.9102C18.2761 34.5921 17.9129 34.1535 17.7213 33.6528L17.4841 33.1803C17.2857 32.8077 17.035 32.4576 16.7376 32.1378C16.4706 31.8101 16.1164 31.5426 15.7047 31.3579L15.5397 31.2579C15.4261 31.1856 15.3231 31.1017 15.233 31.0079C15.147 30.9218 15.075 30.8259 15.0189 30.7229C14.9726 30.6279 15.0112 30.5496 15.1347 30.4879C15.3521 30.4091 15.5885 30.3773 15.8233 30.3954L16.2978 30.4579C16.6161 30.5112 17.0076 30.6746 17.4725 30.9479C17.9354 31.2212 18.3183 31.5762 18.6211 32.0128C18.9857 32.5728 19.4245 32.9995 19.9376 33.2928C20.3919 33.5703 20.9322 33.7236 21.4884 33.7328C22.0092 33.7328 22.4596 33.6994 22.8396 33.6328C23.2088 33.5674 23.5673 33.4633 23.9073 33.3228C24.0481 32.4095 24.4339 31.707 25.0646 31.2154C24.2457 31.1455 23.4342 31.0218 22.6371 30.8454C21.8593 30.6587 21.111 30.3901 20.4092 30.0454C19.6748 29.7015 19.0259 29.236 18.4996 28.6755C17.9981 28.1289 17.5834 27.4122 17.2555 26.5256C16.915 25.5286 16.7521 24.4926 16.7723 23.4532C16.7723 21.8033 17.3963 20.3975 18.6443 19.2359C18.0598 17.9943 18.1148 16.6019 18.8092 15.0586C19.2702 14.9336 19.9501 15.0253 20.849 15.3336C21.7498 15.6402 22.4095 15.9036 22.8281 16.1235C23.2466 16.3402 23.5822 16.5235 23.8349 16.6735C25.3167 16.3175 26.8481 16.1392 28.3862 16.1435C29.9486 16.1435 31.4656 16.321 32.9374 16.676L33.8343 16.1835C34.4515 15.8569 35.1787 15.5569 36.0159 15.2836C36.8549 15.0086 37.4953 14.9336 37.9371 15.0586C38.6507 16.6019 38.7134 17.9935 38.1251 19.2334C39.375 20.395 40 21.8016 40 23.4532C40 24.6132 39.838 25.6406 39.5139 26.5356C39.1899 27.4305 38.7713 28.1472 38.2582 28.6855C37.7225 29.2399 37.0708 29.7021 36.337 30.0479C35.6366 30.3949 34.888 30.6637 34.1092 30.8479C33.311 31.0236 32.4985 31.1464 31.6788 31.2154C32.5005 31.8287 32.9113 32.7978 32.9113 34.1228V39.015C32.9113 39.2484 32.9509 39.4367 33.03 39.58C33.0673 39.6488 33.12 39.7105 33.185 39.7615C33.2501 39.8126 33.3262 39.852 33.409 39.8775C33.5826 39.9308 33.7369 39.9642 33.8719 39.9775C34.0069 39.9908 34.1998 39.9983 34.4506 40H22.3159Z" fill="white"/>
</g>
</g>
<defs>
<clipPath id="clip0_39_156">
<rect width="55" height="55" fill="white"/>
</clipPath>
<clipPath id="clip1_39_156">
<rect width="55" height="55" fill="white"/>
</clipPath>
</defs>
</svg>
