<svg width="55" height="55" viewBox="0 0 55 55" fill="none" xmlns="http://www.w3.org/2000/svg">
<g clip-path="url(#clip0_39_26)">
<rect width="55" height="55" fill="#1E0E67"/>
<g clip-path="url(#clip1_39_26)" filter="url(#filter0_d_39_26)">
<rect width="55" height="55" fill="#1E0E67" fill-opacity="0.2"/>
<mask id="path-1-inside-1_39_26" fill="white">
<path d="M49.5 27.5C49.5 33.3348 47.1822 38.9305 43.0564 43.0564C38.9305 47.1822 33.3348 49.5 27.5 49.5C21.6652 49.5 16.0695 47.1822 11.9437 43.0564C7.81785 38.9305 5.5 33.3348 5.5 27.5C5.5 21.6652 7.81785 16.0695 11.9437 11.9437C16.0695 7.81785 21.6652 5.5 27.5 5.5C33.3348 5.5 38.9305 7.81785 43.0564 11.9437C47.1822 16.0695 49.5 21.6652 49.5 27.5ZM27.5 55C42.6882 55 55 42.6882 55 27.5C55 12.3118 42.6882 0 27.5 0C12.3118 0 0 12.3118 0 27.5C0 42.6882 12.3118 55 27.5 55ZM28.4845 20.3005C25.8115 21.4133 20.4664 23.7169 12.4493 27.2113C11.1458 27.7283 10.4637 28.2342 10.4032 28.7292C10.2987 29.5652 11.3465 29.8953 12.7738 30.3435L13.3733 30.536C14.7758 30.9925 16.6678 31.526 17.6495 31.548C18.5405 31.5663 19.5342 31.1997 20.6305 30.448C28.1215 25.388 31.988 22.8314 32.23 22.7782C32.4033 22.7397 32.6398 22.6903 32.7993 22.8333C32.9615 22.9763 32.945 23.2457 32.9285 23.32C32.824 23.7627 28.71 27.588 26.5815 29.5653C25.9508 30.1593 25.3247 30.7578 24.7032 31.361C23.3997 32.6178 22.4208 33.561 24.7583 35.101C27.126 36.663 29.5158 38.2195 31.8258 39.8667C32.9642 40.6807 33.9873 41.4068 35.2523 41.294C35.9865 41.2253 36.7455 40.535 37.1305 38.4725C38.0435 33.605 39.8338 23.0505 40.2463 18.7C40.2702 18.3391 40.2545 17.9767 40.1995 17.6192C40.167 17.3316 40.0276 17.0666 39.809 16.8768C39.479 16.6073 38.9703 16.5523 38.7448 16.555C37.7108 16.5743 36.124 17.1243 28.4873 20.3005"/>
</mask>
<path d="M49.5 27.5C49.5 33.3348 47.1822 38.9305 43.0564 43.0564C38.9305 47.1822 33.3348 49.5 27.5 49.5C21.6652 49.5 16.0695 47.1822 11.9437 43.0564C7.81785 38.9305 5.5 33.3348 5.5 27.5C5.5 21.6652 7.81785 16.0695 11.9437 11.9437C16.0695 7.81785 21.6652 5.5 27.5 5.5C33.3348 5.5 38.9305 7.81785 43.0564 11.9437C47.1822 16.0695 49.5 21.6652 49.5 27.5ZM27.5 55C42.6882 55 55 42.6882 55 27.5C55 12.3118 42.6882 0 27.5 0C12.3118 0 0 12.3118 0 27.5C0 42.6882 12.3118 55 27.5 55ZM28.4845 20.3005C25.8115 21.4133 20.4664 23.7169 12.4493 27.2113C11.1458 27.7283 10.4637 28.2342 10.4032 28.7292C10.2987 29.5652 11.3465 29.8953 12.7738 30.3435L13.3733 30.536C14.7758 30.9925 16.6678 31.526 17.6495 31.548C18.5405 31.5663 19.5342 31.1997 20.6305 30.448C28.1215 25.388 31.988 22.8314 32.23 22.7782C32.4033 22.7397 32.6398 22.6903 32.7993 22.8333C32.9615 22.9763 32.945 23.2457 32.9285 23.32C32.824 23.7627 28.71 27.588 26.5815 29.5653C25.9508 30.1593 25.3247 30.7578 24.7032 31.361C23.3997 32.6178 22.4208 33.561 24.7583 35.101C27.126 36.663 29.5158 38.2195 31.8258 39.8667C32.9642 40.6807 33.9873 41.4068 35.2523 41.294C35.9865 41.2253 36.7455 40.535 37.1305 38.4725C38.0435 33.605 39.8338 23.0505 40.2463 18.7C40.2702 18.3391 40.2545 17.9767 40.1995 17.6192C40.167 17.3316 40.0276 17.0666 39.809 16.8768C39.479 16.6073 38.9703 16.5523 38.7448 16.555C37.7108 16.5743 36.124 17.1243 28.4873 20.3005" fill="white"/>
<path d="M49.5 27.5H50.5H49.5ZM27.5 49.5V50.5V49.5ZM5.5 27.5H4.5H5.5ZM27.5 5.5V4.5V5.5ZM12.4493 27.2113L12.8179 28.1408L12.8335 28.1346L12.8488 28.128L12.4493 27.2113ZM10.4032 28.7292L11.3955 28.8533L11.3959 28.8506L10.4032 28.7292ZM12.7738 30.3435L13.0795 29.3914L13.0734 29.3894L12.7738 30.3435ZM13.3733 30.536L13.6828 29.5851L13.679 29.5839L13.3733 30.536ZM17.6495 31.548L17.6271 32.5478L17.6289 32.5478L17.6495 31.548ZM20.6305 30.448L20.0707 29.6193L20.065 29.6232L20.6305 30.448ZM32.23 22.7782L32.4446 23.755L32.4469 23.7544L32.23 22.7782ZM32.7993 22.8333L32.1317 23.5778L32.1381 23.5835L32.7993 22.8333ZM32.9285 23.32L33.9018 23.5497L33.9047 23.5369L32.9285 23.32ZM26.5815 29.5653L25.9009 28.8326L25.8959 28.8373L26.5815 29.5653ZM24.7032 31.361L25.3973 32.0809L25.3997 32.0786L24.7032 31.361ZM24.7583 35.101L25.3089 34.2663L25.3084 34.2659L24.7583 35.101ZM31.8258 39.8667L32.4074 39.0533L32.4063 39.0526L31.8258 39.8667ZM35.2523 41.294L35.341 42.2901L35.3455 42.2896L35.2523 41.294ZM37.1305 38.4725L36.1476 38.2881L36.1475 38.289L37.1305 38.4725ZM40.2463 18.7L41.2418 18.7944L41.2431 18.7803L41.2441 18.7662L40.2463 18.7ZM40.1995 17.6192L39.2058 17.7315L39.2081 17.7515L39.2111 17.7714L40.1995 17.6192ZM39.809 16.8768L40.4646 16.1216L40.4532 16.1117L40.4415 16.1022L39.809 16.8768ZM38.7448 16.555L38.7326 15.5551L38.7261 15.5552L38.7448 16.555ZM49.5 27.5H48.5C48.5 33.0695 46.2875 38.411 42.3492 42.3492L43.0564 43.0564L43.7635 43.7635C48.0768 39.4501 50.5 33.6 50.5 27.5H49.5ZM43.0564 43.0564L42.3492 42.3492C38.411 46.2875 33.0695 48.5 27.5 48.5V49.5V50.5C33.6 50.5 39.4501 48.0768 43.7635 43.7635L43.0564 43.0564ZM27.5 49.5V48.5C21.9305 48.5 16.589 46.2875 12.6508 42.3492L11.9437 43.0564L11.2365 43.7635C15.5499 48.0768 21.4 50.5 27.5 50.5V49.5ZM11.9437 43.0564L12.6508 42.3492C8.71249 38.411 6.5 33.0695 6.5 27.5H5.5H4.5C4.5 33.6 6.92321 39.4501 11.2365 43.7635L11.9437 43.0564ZM5.5 27.5H6.5C6.5 21.9305 8.71249 16.589 12.6508 12.6508L11.9437 11.9437L11.2365 11.2365C6.92321 15.5499 4.5 21.4 4.5 27.5H5.5ZM11.9437 11.9437L12.6508 12.6508C16.589 8.71249 21.9305 6.5 27.5 6.5V5.5V4.5C21.4 4.5 15.5499 6.92321 11.2365 11.2365L11.9437 11.9437ZM27.5 5.5V6.5C33.0695 6.5 38.411 8.71249 42.3492 12.6508L43.0564 11.9437L43.7635 11.2365C39.4501 6.92321 33.6 4.5 27.5 4.5V5.5ZM43.0564 11.9437L42.3492 12.6508C46.2875 16.589 48.5 21.9305 48.5 27.5H49.5H50.5C50.5 21.4 48.0768 15.5499 43.7635 11.2365L43.0564 11.9437ZM27.5 55V56C43.2405 56 56 43.2405 56 27.5H55H54C54 42.136 42.136 54 27.5 54V55ZM55 27.5H56C56 11.7595 43.2405 -1 27.5 -1V0V1C42.136 1 54 12.864 54 27.5H55ZM27.5 0V-1C11.7595 -1 -1 11.7595 -1 27.5H0H1C1 12.864 12.864 1 27.5 1V0ZM0 27.5H-1C-1 43.2405 11.7595 56 27.5 56V55V54C12.864 54 1 42.136 1 27.5H0ZM28.4845 20.3005L28.1002 19.3773C25.4182 20.4939 20.0656 22.8008 12.0497 26.2945L12.4493 27.2113L12.8488 28.128C20.8673 24.6331 26.2048 22.3328 28.8688 21.2237L28.4845 20.3005ZM12.4493 27.2113L12.0806 26.2817C11.3931 26.5544 10.8057 26.8479 10.3643 27.1754C9.94921 27.4834 9.49113 27.9493 9.41064 28.6079L10.4032 28.7292L11.3959 28.8506C11.3759 29.0141 11.289 28.9796 11.556 28.7816C11.7966 28.6031 12.2019 28.3851 12.8179 28.1408L12.4493 27.2113ZM10.4032 28.7292L9.41097 28.6052C9.35512 29.052 9.45739 29.4741 9.70214 29.8338C9.92753 30.1649 10.2375 30.3905 10.5197 30.551C11.0614 30.8591 11.8014 31.0863 12.4741 31.2976L12.7738 30.3435L13.0734 29.3894C12.3188 29.1525 11.8213 28.9905 11.5085 28.8125C11.3634 28.73 11.3418 28.6883 11.3556 28.7085C11.3886 28.7571 11.3991 28.8245 11.3955 28.8533L10.4032 28.7292ZM12.7738 30.3435L12.468 31.2956L13.0675 31.4881L13.3733 30.536L13.679 29.5839L13.0795 29.3914L12.7738 30.3435ZM13.3733 30.536L13.0637 31.4869C13.7792 31.7198 14.626 31.9745 15.4261 32.175C16.2031 32.3696 17.0154 32.534 17.6271 32.5477L17.6495 31.548L17.6719 30.5483C17.3018 30.54 16.6773 30.4266 15.9122 30.2349C15.1702 30.049 14.3698 29.8087 13.6828 29.5851L13.3733 30.536ZM17.6495 31.548L17.6289 32.5478C18.8086 32.5721 20.0076 32.0875 21.196 31.2728L20.6305 30.448L20.065 29.6232C19.0607 30.3118 18.2724 30.5606 17.6701 30.5482L17.6495 31.548ZM20.6305 30.448L21.1902 31.2767C24.9351 28.7471 27.7711 26.8452 29.7002 25.5697C30.6654 24.9315 31.3994 24.4528 31.9051 24.1316C32.1589 23.9704 32.3486 23.8531 32.4784 23.7763C32.5443 23.7373 32.5858 23.7141 32.6082 23.7023C32.6775 23.6658 32.5852 23.7241 32.4446 23.755L32.23 22.7782L32.0154 21.8015C31.8445 21.8391 31.6937 21.9235 31.6761 21.9328C31.6116 21.9668 31.5379 22.0089 31.4603 22.0548C31.3031 22.1478 31.0925 22.2784 30.8327 22.4434C30.3113 22.7746 29.5651 23.2613 28.5971 23.9014C26.6596 25.1825 23.8169 27.0889 20.0708 29.6193L20.6305 30.448ZM32.23 22.7782L32.4469 23.7544C32.4903 23.7448 32.5111 23.7406 32.5271 23.738C32.5423 23.7356 32.5351 23.7378 32.513 23.7377C32.4692 23.7374 32.2961 23.7252 32.1317 23.5778L32.7993 22.8333L33.4668 22.0887C33.1429 21.7983 32.7718 21.7394 32.5266 21.7377C32.2967 21.7361 32.0889 21.7852 32.0131 21.8021L32.23 22.7782ZM32.7993 22.8333L32.1381 23.5835C31.9714 23.4366 31.9455 23.2742 31.9418 23.2499C31.9385 23.2275 31.9382 23.2106 31.9387 23.1976C31.939 23.1904 31.9401 23.1581 31.9523 23.1031L32.9285 23.32L33.9047 23.5369C33.9396 23.3798 33.9521 23.1704 33.92 22.9549C33.8882 22.7416 33.7893 22.3729 33.4604 22.083L32.7993 22.8333ZM32.9285 23.32L31.9552 23.0903C31.9961 22.917 32.0762 22.8213 32.0399 22.874C32.029 22.8899 32.0009 22.9274 31.9473 22.9913C31.8417 23.117 31.6818 23.292 31.4706 23.5121C31.0509 23.9493 30.4716 24.5199 29.8205 25.1468C28.5203 26.3984 26.9662 27.843 25.9009 28.8326L26.5815 29.5653L27.2621 30.2979C28.3253 29.3103 29.8924 27.8536 31.2075 26.5876C31.864 25.9557 32.4659 25.3633 32.9135 24.897C33.1358 24.6653 33.3312 24.4534 33.4789 24.2774C33.5519 24.1905 33.625 24.0985 33.6869 24.0087C33.7233 23.9558 33.8478 23.7783 33.9018 23.5497L32.9285 23.32ZM26.5815 29.5653L25.8959 28.8373C25.2616 29.4347 24.6319 30.0367 24.0068 30.6434L24.7032 31.361L25.3997 32.0786C26.0176 31.4789 26.6401 30.8838 27.2671 30.2932L26.5815 29.5653ZM24.7032 31.361L24.0092 30.6411C23.6947 30.9443 23.3439 31.2807 23.0618 31.6227C22.7822 31.9616 22.4893 32.3992 22.3843 32.9312C22.1394 34.1723 22.992 35.1349 24.2081 35.9361L24.7583 35.101L25.3084 34.2659C24.7751 33.9146 24.5226 33.6544 24.4121 33.4887C24.3245 33.3574 24.3458 33.3218 24.3465 33.3183C24.357 33.265 24.4071 33.1348 24.6047 32.8953C24.7996 32.6589 25.0601 32.406 25.3973 32.0809L24.7032 31.361ZM24.7583 35.101L24.2076 35.9357C26.5831 37.5028 28.9537 39.0469 31.2452 40.6809L31.8258 39.8667L32.4063 39.0526C30.0778 37.3921 27.6689 35.8232 25.3089 34.2663L24.7583 35.101ZM31.8258 39.8667L31.2441 40.6802C32.3114 41.4433 33.6428 42.4414 35.341 42.2901L35.2523 41.294L35.1635 40.298C34.3317 40.3721 33.6171 39.9182 32.4074 39.0533L31.8258 39.8667ZM35.2523 41.294L35.3455 42.2896C36.795 42.1539 37.7106 40.8146 38.1135 38.656L37.1305 38.4725L36.1475 38.289C35.7804 40.2554 35.178 40.2966 35.159 40.2984L35.2523 41.294ZM37.1305 38.4725L38.1134 38.6569C39.0258 33.7923 40.8244 23.1961 41.2418 18.7944L40.2463 18.7L39.2507 18.6056C38.8431 22.9049 37.0612 33.4177 36.1476 38.2881L37.1305 38.4725ZM40.2463 18.7L41.2441 18.7662C41.2728 18.3324 41.254 17.8968 41.1879 17.4671L40.1995 17.6192L39.2111 17.7714C39.255 18.0566 39.2676 18.3458 39.2484 18.6338L40.2463 18.7ZM40.1995 17.6192L41.1932 17.507C41.1325 16.9702 40.8725 16.4758 40.4646 16.1216L39.809 16.8768L39.1534 17.6319C39.1828 17.6573 39.2015 17.6929 39.2058 17.7315L40.1995 17.6192ZM39.809 16.8768L40.4415 16.1022C40.117 15.8372 39.748 15.7077 39.4706 15.6413C39.1865 15.5732 38.9201 15.5528 38.7326 15.5551L38.7448 16.555L38.7569 17.5549C38.7949 17.5545 38.8956 17.5601 39.0048 17.5863C39.0565 17.5987 39.0994 17.6131 39.132 17.6275C39.1651 17.6421 39.1774 17.652 39.1765 17.6513L39.809 16.8768ZM38.7448 16.555L38.7261 15.5552C38.0303 15.5681 37.24 15.7638 35.7511 16.3038C34.2452 16.8499 31.9181 17.7905 28.1032 19.3772L28.4873 20.3005L28.8713 21.2238C32.6932 19.6342 34.9778 18.7117 36.433 18.184C37.9051 17.6501 38.4252 17.5611 38.7634 17.5548L38.7448 16.555Z" fill="#1E0E67" mask="url(#path-1-inside-1_39_26)"/>
</g>
</g>
<defs>
<filter id="filter0_d_39_26" x="-4" y="0" width="63" height="63" filterUnits="userSpaceOnUse" color-interpolation-filters="sRGB">
<feFlood flood-opacity="0" result="BackgroundImageFix"/>
<feColorMatrix in="SourceAlpha" type="matrix" values="0 0 0 0 0 0 0 0 0 0 0 0 0 0 0 0 0 0 127 0" result="hardAlpha"/>
<feOffset dy="4"/>
<feGaussianBlur stdDeviation="2"/>
<feComposite in2="hardAlpha" operator="out"/>
<feColorMatrix type="matrix" values="0 0 0 0 0 0 0 0 0 0 0 0 0 0 0 0 0 0 0.25 0"/>
<feBlend mode="normal" in2="BackgroundImageFix" result="effect1_dropShadow_39_26"/>
<feBlend mode="normal" in="SourceGraphic" in2="effect1_dropShadow_39_26" result="shape"/>
</filter>
<clipPath id="clip0_39_26">
<rect width="55" height="55" fill="white"/>
</clipPath>
<clipPath id="clip1_39_26">
<rect width="55" height="55" fill="white"/>
</clipPath>
</defs>
</svg>
